<svg width="1929" height="1550" viewBox="0 0 1929 1550" fill="none" xmlns="http://www.w3.org/2000/svg">
<path d="M438.759 1.51665C565.959 18.4166 575.159 135.217 590.759 214.517C603.459 279.417 678.759 256.517 709.759 341.517C740.759 426.517 691.759 563.517 536.759 511.517C381.759 459.517 357.359 483.917 292.759 522.517C195.759 580.517 94.7586 509.517 118.759 420.517C135.659 357.917 -4.74138 284.117 39.7586 207.517C100.759 102.517 211.959 170.117 256.759 122.517C334.359 40.2166 355.759 -9.48335 438.759 1.51665Z" fill="#FFD372"/>
<g clip-path="url(#clip0_9_17)">
<path d="M885.6 191.4C782.4 259.2 871.5 354.5 923.5 346.9C975.5 339.3 1007.5 284 984.5 231.7C961.5 179.4 920.6 168.4 885.6 191.4Z" fill="#EDFF8F"/>
</g>
<g clip-path="url(#clip1_9_17)">
<path d="M1644.4 554.7C1550.2 641.8 1454.4 574.3 1383.4 535.6C1325.4 504 1294.9 576.5 1209.7 546C1124.5 515.5 1050.4 390.3 1189.5 304.3C1328.6 218.3 1325.3 183.9 1336.9 109.5C1354.2 -2.19997 1473.4 -34.5 1526.5 40.8C1563.9 93.8 1710.3 32.9 1740.8 116.1C1782.6 230.1 1659.6 272.5 1667.6 337.4C1681.4 449.7 1705.9 497.8 1644.4 554.7Z" fill="#2C5EAF"/>
</g>
<g clip-path="url(#clip2_9_17)">
<path d="M862.1 1216.2C749.7 1278 673 1189.4 613.4 1134.7C564.7 1090 517.7 1153 442.3 1102.9C366.9 1052.8 325.3 913.4 480.9 863.4C636.5 813.4 641.8 779.4 670.9 710C714.8 605.8 838.2 603.2 871.6 689.1C895.1 749.5 1051.9 725.7 1061.4 813.9C1074.5 934.6 944.9 946 937 1010.9C923.3 1123.2 935.5 1175.9 862.1 1216.2Z" fill="#6DCC7E"/>
</g>
<path d="M1117.6 1101.4C1014.4 1169.2 1103.5 1264.5 1155.5 1256.9C1207.5 1249.3 1239.5 1194 1216.5 1141.7C1193.5 1089.4 1152.6 1078.4 1117.6 1101.4Z" fill="#82B6FF"/>
<g clip-path="url(#clip3_9_17)">
<path d="M1859 1237C1786 1277 1735 1240 1626 1237C1559.9 1235.2 1510 1350 1436 1312C1333.6 1259.4 1455.1 1168.4 1406 1107C1338.3 1022.4 1261.4 1059.2 1272 965C1280 894 1398.8 857.4 1428 788C1471.8 683.8 1567.9 681.1 1623.5 754.6C1692 845 1845 706 1907 784C1976.7 871.7 1858.9 934.1 1851 999C1837.3 1111.4 1932.4 1196.8 1859 1237Z" fill="#FF5994"/>
</g>
<g clip-path="url(#clip4_9_17)">
<path d="M37.3001 701.4C-37.9999 750.9 15.7001 790.2 67.3001 832.4C86.3001 848 93.4001 891.9 170.3 901.4C247.2 910.9 342.5 803.7 288.3 717.4C235.3 633.1 198.3 702.4 132.3 691.4C98.0001 685.7 64.3001 683.7 37.3001 701.4Z" fill="#82B6FF"/>
</g>
<g clip-path="url(#clip5_9_17)">
<path d="M283.2 1090.5C224.2 1098.4 210.5 1141.3 148.9 1189.3C111.6 1218.4 34.0999 1173.3 7.59994 1226.6C-29.1001 1300.3 79.4999 1301.3 77.1999 1357.5C73.9999 1435 14.0999 1446.4 60.1999 1496.2C94.8999 1533.7 178.9 1504.4 225.2 1532.1C294.6 1573.6 351.2 1534.4 352.1 1468.5C353.2 1387.3 500.4 1402.6 503 1331.3C506 1251.2 411.6 1265.2 379.6 1231.1C324 1172.1 342.6 1082.6 283.2 1090.5Z" fill="#EDFF8F"/>
</g>
<defs>
<clipPath id="clip0_9_17">
<rect width="154.1" height="167.4" fill="white" transform="translate(838 180)"/>
</clipPath>
<clipPath id="clip1_9_17">
<rect width="637.5" height="597.2" fill="white" transform="translate(1112)"/>
</clipPath>
<clipPath id="clip2_9_17">
<rect width="687.4" height="609.3" fill="white" transform="translate(375 628)"/>
</clipPath>
<clipPath id="clip3_9_17">
<rect width="658" height="615.8" fill="white" transform="translate(1271 704)"/>
</clipPath>
<clipPath id="clip4_9_17">
<rect width="304.2" height="227" fill="white" transform="translate(0 675)"/>
</clipPath>
<clipPath id="clip5_9_17">
<rect width="503" height="459.1" fill="white" transform="translate(0 1090)"/>
</clipPath>
</defs>
</svg>
