<svg xmlns="http://www.w3.org/2000/svg" viewBox="0 0 979.19 189.6"><defs><style>.cls-1{fill:#2c5eaf;}.cls-2{fill:#ffd372;}.cls-3{fill:#6bc678;}.cls-4{fill:#ff9668;}</style></defs><g id="Layer_2" data-name="Layer 2"><g id="Layer_1-2" data-name="Layer 1"><path class="cls-1" d="M99.2,30.4a15.32,15.32,0,0,1-1.9,8.1,14.05,14.05,0,0,1-5,4.9,19.82,19.82,0,0,1-7,2.4,53.22,53.22,0,0,1-8.1.6,12,12,0,0,1-7.6-2.2,40.09,40.09,0,0,1-5.2-4.9,51.15,51.15,0,0,0-5.1-5Q56.6,32,51.8,32A14.33,14.33,0,0,0,43,35.2a9.88,9.88,0,0,0-4.2,8.2,11.75,11.75,0,0,0,4.9,9.5,63.92,63.92,0,0,0,12.2,7.4q7.31,3.5,15.8,7.3a81,81,0,0,1,15.8,9.3A49.47,49.47,0,0,1,99.7,90.2q4.9,7.8,4.9,19.2,0,11.8-4,20.4A38.46,38.46,0,0,1,89.5,144a48.85,48.85,0,0,1-16.6,8.4,71.34,71.34,0,0,1-20.3,2.8A72.06,72.06,0,0,1,35.7,153a69.07,69.07,0,0,1-17.1-6.6A42.72,42.72,0,0,1,5.3,135.2,25.57,25.57,0,0,1,0,119q0-5.4,2.1-8.5a14.33,14.33,0,0,1,5.4-4.8,21.89,21.89,0,0,1,7.5-2.2,71.71,71.71,0,0,1,8.4-.5q6.2,0,9.3,3.2a40.43,40.43,0,0,1,5.4,6.9,47.58,47.58,0,0,0,5.2,6.9q2.89,3.19,8.9,3.2A14.55,14.55,0,0,0,62.6,119,13.59,13.59,0,0,0,67,108.8a11.65,11.65,0,0,0-4.9-9.6,60.2,60.2,0,0,0-12.3-7.1q-7.39-3.3-16-6.8a77.61,77.61,0,0,1-16-8.8,46.74,46.74,0,0,1-12.3-13Q.59,55.8.6,44A37.34,37.34,0,0,1,5.2,25.4,44.83,44.83,0,0,1,17.3,11.5,53.86,53.86,0,0,1,34.2,2.9,64.24,64.24,0,0,1,53.2,0,57.76,57.76,0,0,1,67.1,2,65,65,0,0,1,82.2,7.9a42.39,42.39,0,0,1,12.1,9.6A19.24,19.24,0,0,1,99.2,30.4Z"/><path class="cls-1" d="M196.8,117.4h1.6a15.4,15.4,0,0,1,6.2,1.3,16.65,16.65,0,0,1,5.2,3.5,19,19,0,0,1,3.6,5.1,13.91,13.91,0,0,1,1.4,6.1,14.23,14.23,0,0,1-4.2,10.3,33,33,0,0,1-10.2,7,58,58,0,0,1-12.6,4,60,60,0,0,1-11.4,1.3,56.83,56.83,0,0,1-23.1-4.7A59.67,59.67,0,0,1,122,119.6a58,58,0,0,1-4.6-23,61.24,61.24,0,0,1,16.9-42.2,60.81,60.81,0,0,1,18.5-13.1,54.06,54.06,0,0,1,23-4.9,56.2,56.2,0,0,1,21.5,4.3A62.75,62.75,0,0,1,216,52.5,59.87,59.87,0,0,1,229.2,70a47.25,47.25,0,0,1,5,21.4,14.7,14.7,0,0,1-4.6,10.9,15.19,15.19,0,0,1-11,4.5H150.2q1,9.8,8,15.3a26,26,0,0,0,16.6,5.5,28.6,28.6,0,0,0,12.2-2.7A28,28,0,0,0,196.8,117.4Zm4.6-33a23.49,23.49,0,0,0-9.2-14.3A26.68,26.68,0,0,0,176,64.8q-9.6,0-16.2,5.1t-9,14.5Z"/><path class="cls-2" d="M365.2,56.2V173.6q0,7.6-5.2,11.8a19.13,19.13,0,0,1-12.4,4.2q-6.41,0-9.4-2.7a16.9,16.9,0,0,1-4.5-6.6,40.21,40.21,0,0,1-2.2-8.6,45.68,45.68,0,0,0-2.1-8.6,16.07,16.07,0,0,0-4.4-6.6q-3-2.7-9.2-2.7a40.41,40.41,0,0,0-9.4,1.1A40.48,40.48,0,0,1,297,156a51.78,51.78,0,0,1-39.2-17.2,58.64,58.64,0,0,1-11.2-18.4,61.21,61.21,0,0,1-4-22.2,70.16,70.16,0,0,1,4-23.8A59.4,59.4,0,0,1,258,54.8a54.42,54.42,0,0,1,41.6-18.4,46,46,0,0,1,18.7,4,36.06,36.06,0,0,1,14.9,12V40.2h16a14.73,14.73,0,0,1,6.1,1.3,17,17,0,0,1,5.1,3.5,17.22,17.22,0,0,1,3.5,5.1A14.85,14.85,0,0,1,365.2,56.2ZM304.4,67.8A28.86,28.86,0,0,0,293,70a26.1,26.1,0,0,0-8.9,6.1,28.59,28.59,0,0,0-5.8,9.1,30.19,30.19,0,0,0-2.1,11.4,27.67,27.67,0,0,0,2.2,11.1,28.82,28.82,0,0,0,15.1,15.1,27.67,27.67,0,0,0,11.1,2.2,26.5,26.5,0,0,0,10.8-2.3,28.64,28.64,0,0,0,9-6.2,30.86,30.86,0,0,0,6.1-9.1,26.5,26.5,0,0,0,2.3-10.8,28.58,28.58,0,0,0-2.2-11.2,29.29,29.29,0,0,0-6-9.1,28.64,28.64,0,0,0-9-6.2A27.44,27.44,0,0,0,304.4,67.8Z"/><path class="cls-2" d="M486.6,56.2v80.4a14.85,14.85,0,0,1-1.3,6.1,17.22,17.22,0,0,1-3.5,5.1,17,17,0,0,1-5.1,3.5,14.73,14.73,0,0,1-6.1,1.3H454.8V140.4a23.58,23.58,0,0,1-12.4,12.2,48.08,48.08,0,0,1-36.5-.4,36.1,36.1,0,0,1-13.3-10.4,45.16,45.16,0,0,1-7.8-15.5,67.57,67.57,0,0,1-2.6-19.1v-51a14.31,14.31,0,0,1,5.3-11.6,18.69,18.69,0,0,1,12.3-4.4,13.7,13.7,0,0,1,9,2.8,18.3,18.3,0,0,1,5.2,7,31.3,31.3,0,0,1,2.3,9.2c.33,3.33.5,6.47.5,9.4a133.91,133.91,0,0,1-.8,14.5,131.41,131.41,0,0,0-.8,14.5,81.46,81.46,0,0,0,.6,9.9,27.51,27.51,0,0,0,2.5,8.8,15.39,15.39,0,0,0,5.6,6.3q3.69,2.4,9.9,2.4,6.39,0,10.3-2.6a17.35,17.35,0,0,0,6-6.8,29.8,29.8,0,0,0,2.8-9.4,79,79,0,0,0,.7-10.4,135.77,135.77,0,0,0-.8-14.7,133.28,133.28,0,0,1-.8-14.7,63.92,63.92,0,0,1,.7-9.5,25.13,25.13,0,0,1,2.7-8.4,16,16,0,0,1,5.6-6q3.6-2.3,9.6-2.3a14.73,14.73,0,0,1,6.1,1.3,17,17,0,0,1,5.1,3.5,17.22,17.22,0,0,1,3.5,5.1A14.85,14.85,0,0,1,486.6,56.2Z"/><path class="cls-3" d="M580.8,117.4h1.6a15.4,15.4,0,0,1,6.2,1.3,16.65,16.65,0,0,1,5.2,3.5,19,19,0,0,1,3.6,5.1,13.91,13.91,0,0,1,1.4,6.1,14.23,14.23,0,0,1-4.2,10.3,33,33,0,0,1-10.2,7,58,58,0,0,1-12.6,4,60,60,0,0,1-11.4,1.3,56.83,56.83,0,0,1-23.1-4.7A59.67,59.67,0,0,1,506,119.6a58,58,0,0,1-4.6-23,61.24,61.24,0,0,1,16.9-42.2,60.81,60.81,0,0,1,18.5-13.1,54.06,54.06,0,0,1,23-4.9,56.2,56.2,0,0,1,21.5,4.3A62.75,62.75,0,0,1,600,52.5,59.66,59.66,0,0,1,613.19,70a47.12,47.12,0,0,1,5,21.4,14.69,14.69,0,0,1-4.59,10.9,15.19,15.19,0,0,1-11,4.5H534.2q1,9.8,8,15.3a26,26,0,0,0,16.6,5.5,28.6,28.6,0,0,0,12.2-2.7A28,28,0,0,0,580.8,117.4Zm4.6-33a23.49,23.49,0,0,0-9.2-14.3A26.68,26.68,0,0,0,560,64.8q-9.6,0-16.2,5.1t-9,14.5Z"/><path class="cls-3" d="M632,136.2v-80a16,16,0,0,1,16-16h15.8V52a35.3,35.3,0,0,1,13.3-11.8,38.6,38.6,0,0,1,17.3-3.8A46.28,46.28,0,0,1,713,39.8a35,35,0,0,1,12.9,9.4,38,38,0,0,1,7.5,14.4,67.59,67.59,0,0,1,2.4,18.6v54q0,7.61-5.2,11.8a18.85,18.85,0,0,1-12.2,4.2q-5.8,0-9.1-2.7a17.8,17.8,0,0,1-5.1-6.9,31,31,0,0,1-2.3-9.2,92.76,92.76,0,0,1-.5-9.4,128.69,128.69,0,0,1,.8-14.4,131.12,131.12,0,0,0,.8-14.4,79.79,79.79,0,0,0-.6-9.7,27.77,27.77,0,0,0-2.5-8.8,16.27,16.27,0,0,0-5.6-6.4q-3.7-2.51-9.7-2.5-6.4,0-10.4,2.6a17.78,17.78,0,0,0-6.2,6.8,27.94,27.94,0,0,0-2.9,9.4,77.32,77.32,0,0,0-.7,10.4,120.1,120.1,0,0,0,.9,14.7,121.67,121.67,0,0,1,.9,14.9,63.32,63.32,0,0,1-.7,9.4,26,26,0,0,1-2.6,8.2,14.86,14.86,0,0,1-5.5,5.8,17.82,17.82,0,0,1-9.4,2.2,16,16,0,0,1-16-16Z"/><path class="cls-4" d="M810.19,67.4a25,25,0,0,0-10.7,2.3,28.14,28.14,0,0,0-8.5,6.1,26.89,26.89,0,0,0-5.59,9,29.72,29.72,0,0,0-2,10.8,32.77,32.77,0,0,0,1.89,11.1,28.83,28.83,0,0,0,5.4,9.3,25.38,25.38,0,0,0,8.4,6.3,25.89,25.89,0,0,0,11.1,2.3q6.81,0,11.1-2.4a43.61,43.61,0,0,0,7.7-5.4q3.4-3,6.6-5.4a13,13,0,0,1,8-2.4H868.4a58.78,58.78,0,0,1-8,19.2A62.06,62.06,0,0,1,847,143a59.66,59.66,0,0,1-17.5,9.6A61.41,61.41,0,0,1,809,156a57.58,57.58,0,0,1-23.2-4.7,58.31,58.31,0,0,1-18.7-12.8,61.22,61.22,0,0,1-12.5-18.9,60.45,60.45,0,0,1,.1-46.5,60.59,60.59,0,0,1,32-32A58.3,58.3,0,0,1,810,36.4a62,62,0,0,1,14.1,2,76.39,76.39,0,0,1,16,5.8,46.59,46.59,0,0,1,13.1,9.4,17.93,17.93,0,0,1,5.4,12.8,16,16,0,0,1-16,16h-7.8A38.79,38.79,0,0,0,824.4,71.7,24.32,24.32,0,0,0,810.19,67.4Z"/><path class="cls-4" d="M963.19,40.2a14.69,14.69,0,0,1,6.1,1.3,16.79,16.79,0,0,1,5.1,3.5,17,17,0,0,1,3.5,5.1,14.69,14.69,0,0,1,1.3,6.1,35.59,35.59,0,0,1-1.7,6.7q-1.69,5.5-4.5,13.8t-6.5,18.5q-3.71,10.2-7.7,21t-8,21.2q-4,10.4-7.3,19.1t-5.9,14.8q-2.6,6.1-3.6,8.1a25.07,25.07,0,0,1-6.1,7.6q-3.3,2.59-9.3,2.6a15.83,15.83,0,0,1-6.1-1.2,16.46,16.46,0,0,1-5.1-3.3,15.92,15.92,0,0,1-3.5-5,14.69,14.69,0,0,1-1.3-6.1,19.14,19.14,0,0,1,1.3-7.1,64.42,64.42,0,0,1,3-6.5,64.42,64.42,0,0,0,3-6.5,19.14,19.14,0,0,0,1.3-7.1,55.18,55.18,0,0,0-5.1-22.9q-5.1-11.3-11.3-22.4t-11.3-22.4a55.18,55.18,0,0,1-5.1-22.9,15.06,15.06,0,0,1,4.8-11.5A16.6,16.6,0,0,1,895,40.2c3.6,0,6.44.77,8.5,2.3a17.42,17.42,0,0,1,5,5.8,48.63,48.63,0,0,1,3.3,7.6,49.59,49.59,0,0,0,3.3,7.6,18.73,18.73,0,0,0,4.8,5.8q2.9,2.3,8.1,2.3,6,0,9.2-2.3a17.15,17.15,0,0,0,5.1-5.8,42.6,42.6,0,0,0,3.2-7.6,44.12,44.12,0,0,1,3.2-7.6,16.72,16.72,0,0,1,5.2-5.8Q957.19,40.21,963.19,40.2Z"/></g></g></svg>